<svg width="1215" height="1249" viewBox="0 0 1215 1249" fill="none" xmlns="http://www.w3.org/2000/svg">
<path d="M872.502 529.113L789.661 572.315C799.014 587.013 807.476 602.601 814.602 618.635C842.216 599.483 865.376 563.408 872.502 529.113Z" fill="#ED2823"/>
<path d="M905.46 535.793C895.662 582.113 864.04 627.987 826.628 650.701C835.535 677.424 841.325 705.483 843.997 734.433C843.997 735.324 843.998 736.66 844.443 737.551C845.334 746.458 845.779 755.811 845.779 765.164C845.779 765.164 845.779 765.164 845.779 765.61C845.779 965.586 683.66 1127.7 483.684 1127.7C283.708 1127.7 121.589 965.586 121.589 765.61C121.589 565.634 283.708 403.515 483.684 403.515C485.02 403.515 485.911 403.515 487.247 403.515C491.701 403.515 495.709 403.515 500.163 403.96C504.617 403.96 509.071 404.406 513.97 404.851C514.415 404.851 515.306 404.851 515.752 404.851C525.995 405.742 536.239 407.078 546.483 408.859C558.508 368.775 580.332 330.027 607.945 298.405C568.306 287.716 526.441 282.371 483.684 282.371C216.455 282.371 0 498.826 0 765.61C0 1032.39 216.455 1248.85 483.239 1248.85C750.022 1248.85 966.477 1032.39 966.477 765.61C966.477 680.542 944.654 601.264 906.351 531.785L905.46 535.793Z" fill="#ED2823"/>
<path d="M693.458 272.128C642.685 298.851 598.592 356.75 579.441 416.877C659.61 438.701 728.198 487.247 775.854 552.718L880.964 497.936L889.426 493.482C921.939 476.558 949.998 435.583 958.015 396.835L781.644 487.247C779.862 488.138 778.081 488.583 776.299 488.583C771.846 488.583 767.837 486.356 765.61 481.903C762.493 476.113 764.72 468.986 770.955 465.869L966.477 365.213L974.939 360.759C1007.45 343.834 1035.51 302.859 1043.53 264.111L822.174 376.347C820.392 377.238 818.611 377.683 816.829 377.683C812.375 377.683 808.367 375.456 806.14 371.003C803.022 365.213 805.695 358.087 811.485 354.969L1051.99 232.934L1060.45 228.481C1092.97 211.556 1121.02 170.581 1129.04 131.833L863.149 265.447C861.367 266.338 859.586 266.783 857.804 266.783C853.35 266.783 849.342 264.556 847.115 260.103C843.997 254.313 846.67 247.187 852.46 244.069L1137.95 100.656L1146.41 96.2024C1178.92 79.2779 1206.98 38.3028 1215 0L693.458 272.128Z" fill="#ED2823"/>
</svg>
